<svg width="156" height="179" fill="none" xmlns="http://www.w3.org/2000/svg"><path fill="#86B6B9" d="M37.756 39.681h92.427v88.428H37.756z"/><path d="M155.029 44.708a1.575 1.575 0 0 0-.607-.616L78.434.216a1.608 1.608 0 0 0-1.61 0L.813 44.073a1.26 1.26 0 0 0-.337.268A1.592 1.592 0 0 0 0 45.483v87.743c0 .576.308 1.103.805 1.401l75.989 43.876c.189.11.397.179.606.199.07 0 .13.01.199.01.278 0 .556-.07.805-.219l76.008-43.856c.12-.07.239-.159.338-.258.308-.298.477-.716.477-1.143V45.483c0-.268-.069-.536-.198-.775Zm-39.207 23.518v42.257a1.6 1.6 0 0 1-.756 1.361 1.64 1.64 0 0 1-.854.249H41.006a1.63 1.63 0 0 1-1.61-1.62V68.216a1.6 1.6 0 0 1 .755-1.36l36.663-21.154a1.608 1.608 0 0 1 1.61 0l36.603 21.133c.497.289.805.815.805 1.391h-.01Z" fill="#fff"/><path d="M65.017 98.103a13.88 13.88 0 0 0 9.69-4.113 1.228 1.228 0 0 1 1.858 0l.338.278a1.193 1.193 0 0 1 0 1.69c-.02.02-.04.039-.07.059a16.621 16.621 0 0 1-11.717 4.898c-7.662 0-14.65-5.465-14.65-14.705 0-8.445 5.864-14.814 14.034-14.814a12.626 12.626 0 0 1 10.147 4.62 14.38 14.38 0 0 1 3.548 9.578c.06.785-.527 1.46-1.312 1.52H53.677c.398 6.935 5.526 10.99 11.33 10.99h.01Zm-11.33-13.8h21.358a11.938 11.938 0 0 0-2.366-6.14 9.582 9.582 0 0 0-8.17-3.945c-5.972 0-10.196 4.053-10.812 10.084h-.01ZM81.524 99.057v-.447a3.1 3.1 0 0 1 .904-1.69l16.965-22.474H83.561a1.067 1.067 0 0 1-1.182-.914c0-.07-.01-.139 0-.218v-.338a1.049 1.049 0 0 1 .994-1.083h18.724a1.123 1.123 0 0 1 1.182 1.063v.517a3.55 3.55 0 0 1-.845 1.748L85.42 97.636h17.69a1.113 1.113 0 0 1 1.193 1.024V99.097a1.079 1.079 0 0 1-1.024 1.133H82.717a1.149 1.149 0 0 1-1.183-1.123v-.06l-.01.01Z" fill="#fff"/></svg>