<svg width="187" height="215" fill="none" xmlns="http://www.w3.org/2000/svg"><path d="M186.634 53.787a1.885 1.885 0 0 0-.729-.742L94.486.26a1.934 1.934 0 0 0-1.937 0L1.108 53.022a1.516 1.516 0 0 0-.406.322c-.371.359-.574.861-.574 1.375v105.559c0 .693.37 1.327.968 1.685l91.419 52.786c.227.131.478.215.729.239.084 0 .155.012.239.012.335 0 .67-.084.969-.263l91.442-52.762c.143-.083.287-.191.406-.31.371-.359.574-.861.574-1.375V54.719a1.96 1.96 0 0 0-.239-.932ZM139.466 82.08v50.837c0 .669-.346 1.291-.908 1.638-.311.191-.67.299-1.029.299h-88.07a1.962 1.962 0 0 1-1.937-1.949V82.068c0-.67.346-1.291.909-1.638l44.106-25.448a1.934 1.934 0 0 1 1.937 0l44.036 25.424c.598.347.968.98.968 1.674h-.012Z" fill="#fff"/><path fill="#fff" d="M53.632 57.681h92.427v88.428H53.632z"/><path d="M170.905 62.708a1.57 1.57 0 0 0-.606-.616L94.31 18.216a1.608 1.608 0 0 0-1.61 0L16.692 62.072a1.26 1.26 0 0 0-.338.268 1.592 1.592 0 0 0-.477 1.143v87.743c0 .576.308 1.103.805 1.401l75.988 43.876c.19.109.398.179.607.199.07 0 .129.01.198.01.279 0 .557-.07.805-.219l76.009-43.856c.119-.07.238-.159.338-.259.308-.298.477-.715.477-1.142V63.483c0-.268-.07-.536-.199-.775Zm-39.207 23.518v42.257a1.6 1.6 0 0 1-.755 1.361 1.643 1.643 0 0 1-.855.248H56.882a1.63 1.63 0 0 1-1.61-1.619V86.216a1.6 1.6 0 0 1 .756-1.361L92.69 63.702a1.608 1.608 0 0 1 1.61 0l36.603 21.133c.497.288.805.815.805 1.391h-.01Z" fill="#86B6B9"/><path d="M80.893 116.103a13.878 13.878 0 0 0 9.69-4.114 1.229 1.229 0 0 1 1.859 0l.338.279a1.193 1.193 0 0 1 0 1.689.428.428 0 0 1-.07.059 16.621 16.621 0 0 1-11.717 4.899c-7.663 0-14.65-5.465-14.65-14.705 0-8.446 5.864-14.814 14.033-14.814a12.626 12.626 0 0 1 10.147 4.62 14.38 14.38 0 0 1 3.549 9.578c.06.785-.527 1.46-1.312 1.52H69.554c.397 6.935 5.525 10.989 11.33 10.989h.01Zm-11.33-13.801h21.358a11.935 11.935 0 0 0-2.365-6.14 9.582 9.582 0 0 0-8.17-3.945c-5.972 0-10.196 4.054-10.813 10.085h-.01ZM97.4 117.057v-.447a3.1 3.1 0 0 1 .905-1.689l16.965-22.475H99.438a1.067 1.067 0 0 1-1.183-.914c0-.07-.01-.14 0-.219v-.338a1.049 1.049 0 0 1 .994-1.083h18.724a1.124 1.124 0 0 1 1.183 1.064v.516a3.558 3.558 0 0 1-.845 1.749l-17.014 22.415h17.69a1.111 1.111 0 0 1 1.192 1.023V117.096a1.078 1.078 0 0 1-1.023 1.133H98.593a1.148 1.148 0 0 1-1.182-1.123v-.059l-.01.01Z" fill="#86B6B9"/></svg>